<?xml version="1.0" standalone="no"?>
<!DOCTYPE svg PUBLIC "-//W3C//DTD SVG 20010904//EN"
 "http://www.w3.org/TR/2001/REC-SVG-20010904/DTD/svg10.dtd">
<svg version="1.0" xmlns="http://www.w3.org/2000/svg"
 width="707.000000pt" height="707.000000pt" viewBox="0 0 707.000000 707.000000"
 preserveAspectRatio="xMidYMid meet">
<metadata>
Created by potrace 1.14, written by Peter Selinger 2001-2017
</metadata>
<g transform="translate(0.000000,707.000000) scale(0.100000,-0.100000)"
fill="#000000" stroke="none">
<path d="M3933 4159 c-65 -19 -98 -99 -68 -163 21 -44 59 -66 116 -66 33 0 47
6 75 34 29 29 34 41 34 79 0 53 -27 93 -76 113 -37 16 -37 16 -81 3z"/>
<path d="M2372 4134 l-22 -15 0 -589 0 -589 22 -15 c35 -25 94 -20 123 9 l25
24 0 371 0 370 160 0 c97 0 169 -4 184 -11 48 -22 56 -66 56 -328 0 -306 10
-288 -166 -293 -111 -3 -127 -5 -140 -22 -19 -26 -18 -76 2 -104 14 -21 22
-22 153 -22 157 0 212 13 265 64 19 17 39 49 45 71 14 53 15 576 0 628 -14 53
-69 110 -132 138 -48 22 -68 24 -239 27 l-188 4 0 129 c0 116 -2 131 -20 149
-25 25 -95 27 -128 4z"/>
<path d="M4290 4130 c-20 -20 -20 -33 -20 -600 0 -567 0 -580 20 -600 14 -14
33 -20 68 -20 75 0 82 13 83 151 l0 114 255 288 c260 295 270 309 244 358 -12
22 -60 49 -88 49 -22 0 -79 -59 -272 -283 l-135 -157 -2 343 c-3 335 -3 342
-24 360 -30 24 -103 23 -129 -3z"/>
<path d="M605 4116 c-14 -14 -26 -41 -30 -67 -3 -24 -5 -282 -3 -572 l3 -529
24 -19 c33 -27 114 -26 141 1 19 19 20 33 20 534 l0 515 235 3 c175 2 237 6
247 16 17 17 17 104 -1 125 -12 15 -47 17 -313 17 l-299 0 -24 -24z"/>
<path d="M1605 3836 c-124 -40 -185 -115 -185 -226 0 -61 31 -100 79 -100 65
0 101 39 101 110 0 15 9 38 19 51 18 22 27 24 136 27 153 5 181 -1 205 -41 16
-25 20 -50 20 -114 l0 -83 -183 0 c-199 0 -248 -8 -318 -54 -21 -14 -49 -45
-61 -69 -20 -37 -23 -57 -23 -157 0 -149 14 -182 100 -225 58 -29 65 -30 220
-33 179 -4 185 -2 185 68 0 69 -11 74 -165 80 -167 6 -168 7 -163 119 3 65 6
76 31 97 27 23 33 24 203 24 l174 0 0 -180 c0 -167 1 -181 20 -200 14 -14 33
-20 65 -20 32 0 51 6 65 20 19 19 20 33 20 378 0 394 -2 404 -66 464 -63 59
-114 73 -284 75 -107 2 -167 -2 -195 -11z"/>
<path d="M3447 3839 c-49 -11 -107 -42 -130 -67 -43 -47 -46 -80 -47 -459 0
-350 1 -364 20 -383 27 -27 99 -27 131 -1 l24 19 5 361 c4 276 8 363 18 373 9
9 55 15 140 18 l127 5 13 28 c17 35 7 82 -21 102 -24 17 -213 20 -280 4z"/>
<path d="M3909 3831 l-24 -19 0 -432 0 -432 24 -19 c32 -26 104 -26 131 1 19
19 20 33 20 450 0 417 -1 431 -20 450 -27 27 -99 27 -131 1z"/>
<path d="M5262 3831 c-66 -23 -120 -66 -146 -117 -19 -36 -21 -59 -24 -304 -4
-321 1 -354 64 -415 67 -66 107 -75 313 -75 193 0 220 7 290 66 67 56 71 75
71 394 0 314 -4 333 -66 392 -64 59 -114 73 -289 76 -136 2 -168 -1 -213 -17z
m342 -141 c51 -19 56 -47 56 -310 0 -212 -2 -246 -17 -271 -10 -17 -27 -32
-38 -35 -11 -3 -83 -3 -159 -2 l-139 3 -21 28 c-20 27 -21 43 -24 268 -3 258
2 294 51 317 28 13 257 15 291 2z"/>
<path d="M6185 3835 c-27 -8 -53 -14 -57 -15 -22 -1 -89 -76 -98 -108 -6 -22
-10 -187 -10 -404 l0 -367 22 -15 c30 -22 100 -20 127 2 20 17 21 25 23 375
l3 359 24 19 c20 16 40 19 136 19 132 0 145 7 145 75 0 66 -19 75 -155 74 -61
0 -132 -7 -160 -14z"/>
<path d="M958 3664 c-55 -29 -78 -127 -43 -180 51 -79 182 -75 226 7 16 30 13
92 -5 127 -30 57 -117 80 -178 46z"/>
<path d="M4710 3368 c-40 -15 -70 -49 -70 -80 0 -32 159 -345 190 -373 43 -39
148 18 137 75 -5 24 -142 292 -182 356 -17 26 -43 34 -75 22z"/>
</g>
</svg>
